HIERARCHY
ROOT Hips
{
  OFFSET 2.26061 22.2878 23.7974
  CHANNELS 6 Xposition Yposition Zposition Zrotation Xrotation Yrotation
  JOINT LeftUpLeg
  {
    OFFSET 8.64259 1.95398 -2.38835
    CHANNELS 3 Zrotation Xrotation Yrotation
    JOINT LeftLeg
    {
      OFFSET 43.7702 0 0
      CHANNELS 3 Zrotation Xrotation Yrotation
      JOINT LeftFoot
      {
        OFFSET 40.6238 0 0
        CHANNELS 3 Zrotation Xrotation Yrotation
        JOINT LeftToeBase
        {
          OFFSET 12.7242 0 0
          CHANNELS 3 Zrotation Xrotation Yrotation
          End Site
          {
            OFFSET 0 0 0
          }
        }
      }
    }
  }
  JOINT RightUpLeg
  {
    OFFSET -8.2249 1.95398 -2.59336
    CHANNELS 3 Zrotation Xrotation Yrotation
    JOINT RightLeg
    {
      OFFSET 43.5653 0 0
      CHANNELS 3 Zrotation Xrotation Yrotation
      JOINT RightFoot
      {
        OFFSET 40.6238 0 0
        CHANNELS 3 Zrotation Xrotation Yrotation
        JOINT RightToeBase
        {
          OFFSET 12.7242 0 0
          CHANNELS 3 Zrotation Xrotation Yrotation
          End Site
          {
            OFFSET 0 0 0
          }
        }
      }
    }
  }
  JOINT Spine
  {
    OFFSET 0.165834 0.87714 6.61349
    CHANNELS 3 Zrotation Xrotation Yrotation
    JOINT Spine1
    {
      OFFSET 7.38963 1.71661e-005 0
      CHANNELS 3 Zrotation Xrotation Yrotation
      JOINT Spine2
      {
        OFFSET 11.9445 1.14441e-005 0
        CHANNELS 3 Zrotation Xrotation Yrotation
        JOINT Spine3
        {
          OFFSET 14.7254 4.19617e-005 0
          CHANNELS 3 Zrotation Xrotation Yrotation
          JOINT Spine4
          {
            OFFSET 10.9679 0 0
            CHANNELS 3 Zrotation Xrotation Yrotation
            JOINT RightShoulder
            {
              OFFSET 2.46616 -1.6653 3.69651
              CHANNELS 3 Zrotation Xrotation Yrotation
              JOINT RightArm
              {
                OFFSET 13.0012 0 0
                CHANNELS 3 Zrotation Xrotation Yrotation
                JOINT RightForeArm
                {
                  OFFSET 28.7848 1.52588e-005 0
                  CHANNELS 3 Zrotation Xrotation Yrotation
                  JOINT RightHand
                  {
                    OFFSET 26.5688 1.52588e-005 0
                    CHANNELS 3 Zrotation Xrotation Yrotation
                    End Site
                    {
                      OFFSET 0 0 0
                    }
                  }
                }
              }
            }
            JOINT LeftShoulder
            {
              OFFSET 2.38034 -1.29275 -3.7523
              CHANNELS 3 Zrotation Xrotation Yrotation
              JOINT LeftArm
              {
                OFFSET 16.3182 6.10351e-005 0
                CHANNELS 3 Zrotation Xrotation Yrotation
                JOINT LeftForeArm
                {
                  OFFSET 27.0901 0 0
                  CHANNELS 3 Zrotation Xrotation Yrotation
                  JOINT LeftHand
                  {
                    OFFSET 24.5451 1.52588e-005 0
                    CHANNELS 3 Zrotation Xrotation Yrotation
                    End Site
                    {
                      OFFSET 0 0 0
                    }
                  }
                }
              }
            }
            JOINT Neck
            {
              OFFSET 5.0226 -0.0266342 0
              CHANNELS 3 Zrotation Xrotation Yrotation
              JOINT Head
              {
                OFFSET 6.69363 2.86102e-005 0
                CHANNELS 3 Zrotation Xrotation Yrotation
                End Site
                {
                  OFFSET 0 0 0
                }
              }
            }
          }
        }
      }
    }
  }
}
MOTION
Frames:	17
Frame Time:	0.0416667
27.6229 92.0524 -28.8435 90.847 -45.7567 84.7178 -171.63 26.4399 83.274 -31.2336 14.1091 -4.1895 61.1013 2.36804 6.20316 33.5431 3.66859 2.42601 178.304 7.26166 84.6431 -64.6142 -5.93316 -7.01203 36.1874 5.12474 5.43027 35.9381 0.379858 -5.5689 0.953005 7.5343 -89.0057 11.7855 2.36257 1.7317 0.115661 2.43647 1.62602 -22.4206 1.73304 2.36158 -2.40795 1.73305 2.36159 92.654 -51.2581 -96.5178 21.1711 -8.74811 -1.50488 -8.86816 -19.3614 -53.892 -13.4412 -1.04408 2.89212 -98.4478 -54.8304 67.8587 -27.3522 8.98859 21.9571 1.99878 13.9054 -19.1675 4.34432 0.561868 6.6753 1.07768 -5.51599 4.99849 5.15676 -6.63331 -7.21117 
33.6373 93.584 -24.7468 91.1197 -43.7439 85.757 -172.685 20.6024 83.1894 -29.9778 12.8347 -3.24852 65.0938 5.54695 4.47772 30.26 1.0614 1.33195 178.583 15.0771 85.9128 -69.9219 1.55368 -5.08732 42.9366 2.29979 2.36992 30.0951 0.380072 -5.945 0.659872 7.52662 -89.2046 11.8088 1.68628 1.40667 0.138255 1.74657 1.33108 -22.3957 1.18563 1.84836 -2.3831 1.18566 1.84836 93.4238 -52.5035 -95.1441 21.741 -8.66711 1.38976 -6.78087 -21.0372 -48.5776 -10.683 -0.987368 3.66311 -99.107 -54.1168 66.7097 -27.5999 10.2517 17.0262 0.884004 10.0955 -21.7884 8.3155 0.870006 5.87152 0.503271 -4.98513 5.13733 4.88633 -6.01641 -6.29992 
39.7244 95.4757 -20.8318 91.6733 -40.7256 88.1041 -174.094 14.2192 84.1024 -26.8839 14.746 -1.71295 64.6072 4.87649 4.70577 31.4094 1.93346 2.20535 177.249 20.0578 88.0992 -67.0619 3.56068 -3.50203 50.5155 0.199848 0.395173 33.2145 0.410048 -6.6238 0.248346 7.52294 -89.5627 11.8251 0.699609 0.797935 0.154105 0.734064 0.76637 -22.3797 0.427479 0.971304 -2.36702 0.427462 0.971294 94.1079 -53.2907 -94.0023 22.0498 -8.17906 5.05863 -7.52695 -24.5341 -45.3222 -4.37482 -0.684499 3.79687 -99.5478 -53.5716 65.9116 -26.9474 10.3889 12.7163 1.47723 6.95531 -28.5362 12.1071 1.05233 4.63826 -0.230516 -4.0352 4.09322 5.17048 -4.70717 -3.28233 
45.3406 96.6814 -16.7456 90.7836 -37.3771 88.3533 -174.197 8.7368 84.7741 -22.9289 16.2794 -1.25917 64.3202 4.29448 4.22655 32.89 3.13852 2.33109 175.876 23.8646 89.3083 -57.1047 4.48833 -2.20682 57.013 -1.15285 -0.614851 36.4685 0.368389 -4.62464 -0.216174 7.4462 -89.7972 11.9814 -0.334114 0.440724 0.310416 -0.314415 0.455002 -22.2248 -0.451126 0.319928 -2.21213 -0.45113 0.319935 94.4421 -54.1978 -93.3792 21.4443 -7.69357 9.03148 -9.50886 -28.9852 -43.433 0.226142 -0.545789 4.58143 -100.388 -53.1053 64.5742 -24.532 11.4673 8.04431 1.78208 4.73763 -36.4529 14.4587 0.931297 2.5085 -0.199902 -3.26684 3.58893 5.3202 -3.73471 -1.3152 
50.5215 96.9699 -12.4123 89.3944 -34.4035 87.4619 -173.681 4.89011 85.6325 -21.0087 18.5084 -1.27902 64.1987 3.67885 3.47719 35.0978 4.93844 3.01301 175.107 25.125 89.5152 -40.0283 4.66145 -1.16872 60.9407 -2.01619 -1.15549 38.121 0.353916 -6.58235 -0.599948 7.36453 -89.8514 12.1473 -1.12221 0.420842 0.476731 -1.10259 0.469821 -22.0622 -1.19682 0.0640663 -2.04955 -1.1968 0.0640642 94.6128 -55.1482 -93.0007 21.2775 -7.23855 12.9819 -9.35393 -31.0201 -41.3874 3.2429 -0.407965 4.89303 -100.151 -51.3399 64.2766 -21.6189 11.8331 2.58735 4.96764 5.7592 -44.6665 14.7433 0.802559 1.56014 0.944221 -2.80348 2.54654 4.96655 -3.07518 0.0136268 
55.8695 96.1323 -7.78116 88.6971 -32.4451 86.1265 -173.174 1.31278 85.8312 -21.8459 19.6086 -1.34484 65.475 4.23063 2.62761 38.8721 8.11276 4.48333 175.184 22.9737 88.6592 -16.7685 0.588916 -1.25529 61.6456 -2.59015 -1.5238 43.4783 0.193419 -8.43724 -0.882523 7.35241 -89.7708 12.1746 -1.64562 0.640197 0.504533 -1.61587 0.712007 -22.0389 -1.76196 0.115877 -2.02624 -1.76196 0.115864 95.3673 -55.3902 -91.8736 21.8398 -6.56761 16.1511 -9.99172 -32.5829 -40.2023 5.75994 -0.274988 5.80584 -99.5124 -49.2735 64.447 -17.5916 11.8644 -3.36968 6.13042 4.52616 -51.0449 14.5979 0.638556 0.514236 2.46304 -2.34772 1.03018 4.25754 -2.33603 1.60785 
61.3584 94.691 -2.77933 87.6212 -31.4218 84.8732 -172.728 -1.63875 86.6411 -23.3997 22.8746 -0.999068 67.181 6.84488 6.12679 40.9192 9.71769 2.87481 176.159 25.1085 88.6285 -4.54961 -0.727451 -2.41656 65.3893 -2.63323 -1.4241 46.5376 0.249689 -7.00854 -1.06041 7.31804 -89.7254 12.2457 -1.97745 0.769576 0.575982 -1.94166 0.855877 -21.9709 -2.11728 0.139449 -1.95827 -2.11728 0.139446 96.6463 -55.6526 -89.9906 21.4981 -6.1142 18.451 -10.5802 -33.3819 -39.8936 7.76904 -0.166249 6.06472 -98.5364 -47.7752 65.339 -14.0502 9.95534 -8.44007 7.23793 3.29233 -56.2777 14.0065 0.523259 -0.108046 4.33718 -1.99969 -0.551831 3.09662 -1.67933 3.30376 
66.7977 93.0926 2.47203 88.5723 -29.4722 84.507 -172.679 -4.2207 88.1739 -28.5559 27.7734 0.313097 65.8344 5.91415 5.08684 45.7126 13.8818 4.60054 175.827 26.3335 88.2629 -3.70226 0.754104 -2.07626 69.1213 -3.9208 -2.06178 44.5418 0.548674 -2.90768 -1.37305 7.41034 -89.6301 12.0664 -2.5549 1.01791 0.397443 -2.50761 1.12942 -22.1576 -2.74263 0.202473 -2.14499 -2.74262 0.202463 98.366 -56.665 -87.4258 20.2925 -4.92106 20.2694 -11.5155 -32.8217 -39.8722 9.39995 -0.121534 5.1632 -97.5126 -46.2575 66.3303 -12.0921 7.87089 -12.3913 7.90622 2.92851 -58.3164 15.149 0.643663 0.393626 5.29585 -1.63128 -2.91134 2.413 -0.82376 5.62732 
73.1064 91.6819 8.0582 89.5185 -30.4511 86.19 -172.892 -6.55422 90.3662 -34.5698 29.6388 2.49127 61.151 1.71627 1.61116 50.6965 18.9859 8.79758 176.581 29.1935 90.0037 -15.4525 0.783974 -1.63388 62.5476 -1.77404 -0.910465 43.6968 0.366022 -5.76712 -1.42304 7.38009 -89.7992 12.1243 -2.73373 0.703083 0.455967 -2.70013 0.822792 -22.1022 -2.81856 -0.151676 -2.08957 -2.81858 -0.151674 98.0239 -55.6291 -87.9938 20.5656 -3.60921 22.4991 -9.97164 -30.2044 -37.8078 7.88182 -0.123181 5.27049 -96.6916 -46.12 67.5313 -12.4829 5.92994 -11.1435 9.10378 2.73658 -60.6941 15.7794 0.774442 1.04504 5.01154 -0.608022 -2.75026 1.35524 0.124645 6.15973 
79.9167 91.1119 13.4424 90.701 -31.7242 91.1215 -172.475 -6.47537 95.1592 -40.7961 26.9167 4.05576 46.7903 -8.07092 -7.2586 52.2725 22.0289 14.9487 176.715 31.3127 94.2831 -30.1355 0.988147 -0.579536 59.5112 -0.372166 -0.0625489 37.2309 0.367339 -5.78013 -1.37289 7.38325 -90.3444 12.1059 -2.89192 -0.368556 0.438155 -2.90532 -0.240812 -22.1191 -2.64739 -1.22124 -2.10646 -2.64737 -1.22123 96.8884 -55.6686 -89.6368 18.9439 -2.17645 23.0407 -10.6781 -30.5072 -36.6211 5.36128 -0.244548 6.33885 -97.0046 -48.3886 67.8315 -12.1249 5.66543 -7.51846 8.37174 1.94824 -62.0345 17.4161 1.05336 2.18124 4.87779 0.317935 -2.01943 -0.103672 0.87148 7.07272 
85.6393 90.6087 18.2064 92.7531 -34.1395 93.5629 -173.478 -1.52247 96.1273 -53.3794 22.3247 3.81543 34.8116 -14.3273 -13.345 36.1258 5.85561 16.3382 176.19 29.4197 96.702 -39.5527 -0.0814401 0.139809 66.8922 -2.78109 -1.49014 31.0311 0.280569 -3.59746 -1.08283 7.50033 -90.4689 11.8673 -2.37387 -0.680726 0.198436 -2.40153 -0.575547 -22.3491 -2.05952 -1.36293 -2.33644 -2.05952 -1.36294 96.7528 -54.8092 -89.9171 19.6615 -1.84847 20.9358 -8.91629 -28.3278 -35.9006 2.86355 -0.34615 6.89766 -98.387 -49.3559 66.1217 -13.3897 6.46801 -3.46984 5.99927 1.24139 -59.6221 18.8343 1.17064 2.35129 5.18658 0.392798 -1.32879 -0.690051 0.780534 6.25863 
91.0057 91.8613 23.098 93.3349 -35.5054 93.9157 -174.302 7.01582 95.5244 -63.8739 20.1962 2.95678 39.8629 -11.6406 -7.57532 38.2181 7.97623 15.5176 176.379 23.916 97.4069 -39.8157 -0.68114 -0.112679 71.213 -4.09922 -2.07583 27.6331 0.183149 -3.2098 -0.709097 7.51542 -90.4016 11.8395 -1.59905 -0.630843 0.169397 -1.62526 -0.559847 -22.3704 -1.33553 -1.08231 -2.3578 -1.33552 -1.08231 95.6446 -53.3428 -91.7101 22.9298 -2.22516 18.6027 -9.06402 -26.3647 -36.8615 -0.877513 -0.596259 6.6263 -99.4793 -50.4595 64.9246 -14.1621 9.41864 -3.04447 5.41021 3.54634 -51.6046 17.7841 1.27183 3.30419 4.63631 -0.544404 -0.547933 -0.563821 -0.332944 3.86747 
96.0581 93.8577 27.9217 93.6694 -36.92 92.734 -173.84 14.8188 93.2532 -65.0809 16.551 1.73456 45.8088 -7.85229 -3.52255 39.9758 9.71451 14.6813 177.104 16.9795 97.0139 -35.8169 -1.40636 -1.382 72.3433 -4.55454 -2.26302 27.1836 0.203328 -3.61308 -0.384567 7.51503 -90.1379 11.8435 -0.82956 -0.185972 0.172775 -0.836933 -0.149283 -22.3641 -0.735316 -0.426703 -2.35149 -0.735318 -0.426699 94.9054 -52.3804 -92.9386 24.5867 -4.43196 14.8297 -8.5252 -25.2975 -39.73 -2.50686 -0.677461 5.93662 -99.6353 -51.0815 64.9223 -16.7508 11.1247 -1.92052 3.98574 6.21087 -41.6292 15.837 1.15778 3.40478 3.8472 -1.1781 -0.172953 -0.660007 -1.07128 2.24619 
101.066 95.621 32.4433 93.6433 -40.3121 91.4555 -172.235 20.2054 91.4044 -57.8328 11.2765 0.139057 50.416 -4.84676 -4.08747 40.4383 10.2236 15.2337 177.504 10.6732 96.0737 -31.4754 -3.92403 -2.70015 71.0512 -4.28619 -2.16989 29.6628 0.210255 -2.92963 0.0748096 7.48068 -89.8663 11.9122 0.211776 0.243851 0.241286 0.222282 0.234284 -22.2938 0.128699 0.296224 -2.2811 0.128675 0.296211 94.3519 -51.9774 -93.8292 24.3338 -6.97748 10.1896 -8.86934 -24.8745 -44.6545 -3.38199 -0.650111 3.79248 -99.8262 -51.8163 64.9104 -19.2346 12.4438 1.11741 2.65855 8.92766 -33.5351 13.5066 1.00485 3.47217 3.38829 -1.2231 0.176175 -1.33852 -1.19801 1.46443 
106.185 96.5443 36.7765 92.5222 -43.2126 90.2543 -172.019 23.2673 90.2357 -43.4229 10.9833 -1.01877 54.9362 -1.9584 -1.3632 41.1721 11.044 16.0443 177.441 5.7662 95.1864 -28.171 -6.64768 -3.46581 69.9379 -4.08765 -2.09116 32.3682 0.278529 -2.9363 0.388065 7.42268 -89.7466 12.0269 0.891216 0.408024 0.356221 0.908299 0.368401 -22.1802 0.727362 0.657006 -2.16753 0.727388 0.657023 94.033 -50.3155 -94.5679 23.533 -9.64414 4.17101 -9.71618 -24.9698 -48.7225 -4.48912 -0.664391 2.80807 -100.608 -52.8643 64.1786 -21.8124 12.9552 5.40658 1.2042 10.4636 -27.4389 11.8132 0.880703 3.44356 2.70894 -1.58404 2.38559 -0.361549 -1.92967 -1.2515 
111.551 96.4301 40.777 90.4273 -46.6671 88.825 -172.907 23.388 90.3217 -21.5668 9.71353 -1.21308 56.1524 -0.851137 -1.21618 44.2217 14.5044 18.2328 176.868 2.08653 94.1434 -26.6752 -10.3789 -3.99252 71.1834 -4.8341 -2.41915 33.6864 0.293429 -2.45783 0.703419 7.33357 -89.724 12.2049 1.52888 0.380627 0.534758 1.54416 0.312951 -22.0058 1.34379 0.822586 -1.99316 1.34381 0.822594 93.6013 -47.9662 -95.6293 22.5518 -11.2749 -1.46888 -10.5793 -23.0619 -53.9337 -4.79809 -0.66271 2.86297 -101.1 -54.1084 63.9375 -24.3197 13.2363 10.0916 1.05858 13.2108 -24.0986 8.95371 0.757725 4.14974 4.00563 -1.0378 4.42405 -0.976132 -1.73794 -2.30211 
117.269 95.4971 44.7305 88.9008 -49.9284 88.5426 -174.576 24.9166 91.6797 -6.76783 8.29232 0.347687 61.3379 1.90291 -0.545804 45.2935 15.8514 19.466 176.535 -1.26222 93.3139 -26.765 -13.5978 -4.76002 72.5485 -5.73663 -2.81781 37.455 0.40288 -3.09725 0.998024 7.32211 -89.7938 12.2298 2.08129 0.178584 0.56055 2.08714 0.0867623 -21.9865 1.93134 0.796068 -1.97386 1.93137 0.796075 93.2389 -45.5671 -96.6488 21.6913 -11.3548 -6.75255 -13.246 -21.8355 -59.1909 -5.3532 -0.618665 1.63525 -100.013 -54.6262 65.6232 -27.2995 12.9819 14.0992 1.56636 15.7095 -22.589 6.36608 0.57316 4.30302 5.38742 -0.551223 5.57598 -1.18808 -1.49938 -2.71642 
